<svg width="24" height="24" viewBox="0 0 24 24" fill="none" xmlns="http://www.w3.org/2000/svg">
<path d="M18.1646 17.7605C18.1646 18.2621 17.76 18.6691 17.2574 18.6691H6.75022C6.24861 18.6691 5.84253 18.2621 5.84253 17.7605V8.37316C8.59676 8.36308 15.0221 8.36308 18.1646 8.37316V17.7605V17.7605Z" fill="#49697B"/>
<path d="M9.73488 3.56019C9.78673 3.66195 9.74735 3.78917 9.64418 3.84195C9.54195 3.8938 9.41478 3.85301 9.36293 3.75078L8.03478 1.16216C7.98199 1.05898 8.02418 0.934155 8.12646 0.880905C8.2287 0.828077 8.35493 0.868905 8.40771 0.971655L9.73493 3.56028L9.73488 3.56019Z" fill="#49697B"/>
<path d="M14.5723 3.66914C14.5146 3.76945 14.387 3.804 14.2862 3.74451C14.1863 3.68784 14.1522 3.5602 14.2108 3.45984L15.6652 0.941252C15.7228 0.841408 15.8514 0.805924 15.9503 0.864939C16.0511 0.922033 16.0851 1.05024 16.0276 1.14956L14.5722 3.66909L14.5723 3.66914Z" fill="#49697B"/>
<path d="M21.3724 15.2151C21.3724 15.9452 20.7811 16.5379 20.0495 16.5379C19.318 16.5379 18.7252 15.9456 18.7252 15.2151V9.42578C18.7252 8.69425 19.3175 8.10339 20.0495 8.10339C20.7806 8.10339 21.3724 8.6943 21.3724 9.42578V15.2151Z" fill="#49697B"/>
<path d="M5.27331 15.2151C5.27331 15.9452 4.68006 16.5379 3.95092 16.5379C3.21892 16.5379 2.62708 15.9456 2.62708 15.2151V9.42578C2.62708 8.69425 3.2184 8.10339 3.95092 8.10339C4.68006 8.10339 5.27331 8.6943 5.27331 9.42578V15.2151Z" fill="#49697B"/>
<path d="M11.0342 21.8406C11.0342 22.5706 10.4419 23.1634 9.70947 23.1634C8.97939 23.1634 8.38806 22.5711 8.38806 21.8406V16.0513C8.38806 15.3217 8.97939 14.7274 9.70947 14.7274C10.4415 14.7274 11.0342 15.3217 11.0342 16.0513V21.8406Z" fill="#49697B"/>
<path d="M15.6236 21.8406C15.6236 22.5706 15.0313 23.1634 14.2993 23.1634C13.5692 23.1634 12.9764 22.5711 12.9764 21.8406V16.0513C12.9764 15.3217 13.5688 14.7274 14.2993 14.7274C15.0308 14.7274 15.6236 15.3217 15.6236 16.0513V21.8406Z" fill="#49697B"/>
<path d="M12.0039 2.18726C8.78593 2.18726 6.13585 4.63624 5.78162 7.78408H18.2256C17.8724 4.63624 15.2237 2.1873 12.0039 2.1873V2.18726ZM9.19632 5.5804C8.90926 5.5804 8.67741 5.34954 8.67741 5.06346C8.67741 4.77837 8.90926 4.54746 9.19632 4.54746C9.48048 4.54746 9.71232 4.77832 9.71232 5.06346C9.71232 5.34954 9.48048 5.5804 9.19632 5.5804ZM14.8224 5.5804C14.5363 5.5804 14.3045 5.34954 14.3045 5.06346C14.3045 4.77837 14.5363 4.54746 14.8224 4.54746C15.1094 4.54746 15.3394 4.77832 15.3394 5.06346C15.3394 5.34954 15.1095 5.5804 14.8224 5.5804Z" fill="#49697B"/>
</svg>
