<svg width="24" height="24" viewBox="0 0 24 24" fill="none" xmlns="http://www.w3.org/2000/svg">
<path d="M20.5006 16.4066C19.8128 18.4017 17.7539 21.9342 15.6328 21.9727C14.2257 21.9998 13.7733 21.1388 12.165 21.1388C10.5576 21.1388 10.0545 21.9464 8.72443 21.9989C6.47386 22.0856 3 16.9001 3 12.378C3 8.22423 5.89459 6.16529 8.42343 6.12767C9.77972 6.10317 11.0608 7.04207 11.8877 7.04207C12.7181 7.04207 14.2739 5.91328 15.9093 6.07866C16.5936 6.10754 18.516 6.3543 19.7498 8.15861C16.4763 10.2954 16.9865 14.7642 20.5006 16.4066ZM15.9312 1C13.4583 1.09975 11.4405 3.69421 11.7223 5.83978C14.0079 6.01741 16.2007 3.45533 15.9312 1Z" fill="#49697B"/>
</svg>
